#!OML:ASF E:\Mandelcareful walks\Project 1\Capture day 1\Session 1\Subject1.ASF
:FULLY-SPECIFIED
:DEGREES
876
root 34.9143 13.5321 0.586845 -20.6859 106.869 -39.9614
lowerback 40.9832 1.0495 3.58985
upperback 9.70621 4.23554 -0.682799
thorax -8.56118 2.59668 -4.411
lowerneck -34.2732 -4.81046 -6.33013
upperneck 13.6642 -0.500452 -10.2993
head 9.87994 -1.72009 -2.84288
rclavicle -1.90833e-014 -2.70347e-014
rhumerus 5.20605 42.7874 -104.065
rradius 28.355
rwrist -37.4787
rhand -22.5615 -54.7463
rfingers 7.12502
rthumb 3.86656 -444.691
lclavicle -1.90833e-014 -2.70347e-014
lhumerus -30.3162 -31.3908 90.9082
lradius 68.2047
lwrist 67.8373
lhand -17.87 -6.96864
lfingers 7.12502
lthumb 8.39577 22.8445
rfemur -67.1134 -7.41347 8.77179
rtibia 87.5996
rfoot -32.3635 -7.88313
rtoes -12.1401
lfemur -40.8418 11.6771 -11.5432
ltibia 75.3659
lfoot -30.1337 23.4533
ltoes -27.4409
877
root 35.003 13.5987 0.568161 -18.8957 107.256 -37.8558
lowerback 40.8047 0.976631 3.79536
upperback 9.66306 4.21675 -0.744123
thorax -8.53971 2.58973 -4.57118
lowerneck -33.986 -4.96754 -6.39355
upperneck 13.3304 -0.797456 -10.0963
head 9.7004 -1.80988 -2.79111
rclavicle -1.59028e-014 -1.31993e-013
rhumerus 4.96041 43.9064 -103.312
rradius 30.2795
rwrist -38.3438
rhand -22.7504 -54.9931
rfingers 7.12502
rthumb 3.6841 -444.941
lclavicle -1.59028e-014 -1.31993e-013
lhumerus -30.3337 -31.0739 90.7313
lradius 68.7723
lwrist 67.5361
lhand -18.0867 -6.87859
lfingers 7.12502
lthumb 8.18662 22.9428
rfemur -65.5989 -7.53579 9.01597
rtibia 86.8898
rfoot -32.6839 -8.17946
rtoes -11.0338
lfemur -42.1867 11.7123 -11.6542
ltibia 75.3156
lfoot -29.8446 22.8343
ltoes -27.1938
878
root 35.0837 13.6569 0.539578 -17.9661 107.631 -36.4978
lowerback 40.852 0.927245 3.79235
upperback 9.60579 4.14787 -0.896007
thorax -8.6155 2.56139 -4.71065
lowerneck -33.9458 -5.09703 -6.4354
upperneck 13.2672 -1.03274 -9.8266
head 9.65921 -1.88585 -2.72409
rclavicle -4.77083e-014 5.08889e-014
rhumerus 4.84584 45.284 -102.528
rradius 31.7451
rwrist -39.4692
rhand -23.2599 -54.6483
rfingers 7.12502
rthumb 3.19213 -444.604
lclavicle -4.77083e-014 5.08889e-014
lhumerus -30.5596 -30.665 90.4854
lradius 69.5438
lwrist 66.9203
lhand -18.0466 -6.74563
lfingers 7.12502
lthumb 8.22532 23.0743
rfemur -64.0774 -7.6836 9.03559
rtibia 86.2101
rfoot -32.9566 -8.2933
rtoes -9.39372
lfemur -43.3154 11.761 -12.0406
ltibia 75.1161
lfoot -29.6988 22.4226
ltoes -27.1182
879
root 35.1602 13.7106 0.499882 -17.0125 108.031 -35.1551
lowerback 40.7978 0.791078 3.85444
upperback 9.58608 3.98945 -1.11598
thorax -8.61847 2.49792 -4.91539
lowerneck -33.9455 -5.13185 -6.42916
upperneck 13.3703 -1.11091 -9.68931
head 9.69227 -1.91254 -2.69179
rclavicle -2.70347e-014 -4.13472e-014
rhumerus 4.87548 46.6066 -101.822
rradius 33.0283
rwrist -40.3687
rhand -23.8938 -54.3173
rfingers 7.12502
rthumb 2.57996 -444.281
lclavicle -2.70347e-014 -4.13472e-014
lhumerus -30.7632 -30.2917 90.0791
lradius 70.2953
lwrist 66.3804
lhand -17.7539 -6.7441
lfingers 7.12502
lthumb 8.50782 23.0645
rfemur -62.6501 -7.89358 9.01111
rtibia 85.5731
rfoot -33.1463 -8.33918
rtoes -11.6352
lfemur -44.4104 11.7416 -12.5305
ltibia 74.8028
lfoot -29.7891 21.902
ltoes -26.9252
880
root 35.237 13.7651 0.455574 -15.45 108.322 -33.3174
lowerback 40.538 0.655726 3.99567
upperback 9.59812 3.8576 -1.26166
thorax -8.52026 2.44624 -5.08286
lowerneck -34.1289 -5.19924 -6.6516
upperneck 13.5035 -1.14226 -9.37173
head 9.76634 -1.91214 -2.55769
rclavicle -1.43125e-014 -8.11041e-014
rhumerus 5.07652 47.9637 -101.049
rradius 34.1793
rwrist -40.8424
rhand -24.1139 -54.2212
rfingers 7.12502
rthumb 2.36733 -444.188
lclavicle -1.43125e-014 -8.11041e-014
lhumerus -30.889 -29.824 89.6964
lradius 71.1858
lwrist 65.9775
lhand -17.5797 -6.51238
lfingers 7.12502
lthumb 8.67595 23.2893
rfemur -61.4033 -8.03262 9.23713
rtibia 84.9335
rfoot -33.4269 -8.42827
rtoes -14.2977
lfemur -45.5894 11.702 -12.8486
ltibia 74.3949
lfoot -29.895 21.2176
ltoes -26.2892
881
root 35.317 13.8246 0.405065 -13.8479 108.578 -31.4632
lowerback 40.211 0.545326 4.08714
upperback 9.61862 3.73758 -1.34208
thorax -8.39673 2.39837 -5.15694
lowerneck -34.3369 -5.22215 -6.90915
upperneck 13.6768 -1.0367 -9.23812
head 9.86637 -1.87242 -2.46301
rclavicle -5.56597e-014 1.11319e-014
rhumerus 5.3832 49.3995 -100.217
rradius 35.143
rwrist -41.0321
rhand -24.3213 -54.4219
rfingers 7.12502
rthumb 2.16703 -444.391
lclavicle -5.56597e-014 1.11319e-014
lhumerus -30.987 -29.3662 89.4233
lradius 71.9936
lwrist 65.4325
lhand -17.2065 -6.342
lfingers 7.12502
lthumb 9.03607 23.4445
rfemur -60.1774 -8.2891 9.59343
rtibia 84.2768
rfoot -33.8416 -8.60699
rtoes -13.7834
lfemur -46.8322 11.6408 -13.1936
ltibia 73.9562
lfoot -29.5253 21.1532
ltoes -26.7319
882
root 35.4008 13.8854 0.350923 -13.166 108.645 -30.4192
lowerback 39.9995 0.6077 3.87246
upperback 9.65726 3.70932 -1.4893
thorax -8.29325 2.39636 -5.18384
lowerneck -34.4714 -5.18171 -6.88609
upperneck 13.9273 -0.911777 -9.38437
head 9.98498 -1.84662 -2.50962
rclavicle -1.59028e-014 4.45278e-014
rhumerus 5.72136 50.5436 -99.5441
rradius 35.872
rwrist -41.1247
rhand -24.6679 -54.6719
rfingers 7.12502
rthumb 1.8323 -444.644
lclavicle -1.59028e-014 4.45278e-014
lhumerus -31.1277 -29.2081 89.1597
lradius 72.5891
lwrist 64.9789
lhand -16.8424 -6.64343
lfingers 7.12502
lthumb 9.38737 23.1275
rfemur -58.816 -8.37963 9.77365
rtibia 83.6142
rfoot -34.1416 -8.80748
rtoes -13.2312
lfemur -47.8157 11.7297 -13.6801
ltibia 73.5801
lfoot -28.8432 21.5761
ltoes -28.0434
883
root 35.4731 13.9261 0.297127 -12.5243 108.714 -29.4009
lowerback 39.8859 0.688148 3.56943
upperback 9.62643 3.66167 -1.69199
thorax -8.30171 2.37869 -5.22378
lowerneck -34.4499 -5.13572 -6.78979
upperneck 14.1548 -0.914002 -9.29054
head 10.0632 -1.84706 -2.49654
rclavicle -1.25632e-013 4.13472e-014
rhumerus 5.9403 51.3443 -99.2436
rradius 36.4496
rwrist -41.4804
rhand -25.2469 -54.8803
rfingers 7.12502
rthumb 1.27311 -444.856
lclavicle -1.25632e-013 4.13472e-014
lhumerus -31.3528 -29.2137 88.839
lradius 73.12
lwrist 64.8515
lhand -16.642 -7.06055
lfingers 7.12502
lthumb 9.58073 22.7016
rfemur -57.5999 -8.51911 9.92864
rtibia 83.0502
rfoot -34.1624 -8.94372
rtoes -13.2582
lfemur -48.6144 11.6454 -13.9142
ltibia 73.3713
lfoot -28.5423 20.972
ltoes -27.3262
884
root 35.5241 13.9356 0.221599 -10.0195 108.904 -26.8418
lowerback 39.3386 0.47453 4.00513
upperback 9.51138 3.49703 -1.87193
thorax -8.2399 2.29199 -5.56552
lowerneck -34.4044 -4.85188 -6.5076
upperneck 14.5989 -0.606428 -9.45516
head 10.2297 -1.73892 -2.55738
rclavicle 9.54166e-015 2.8625e-014
rhumerus 6.12707 51.7723 -99.225
rradius 36.7666
rwrist -41.7909
rhand -25.93 -55.3454
rfingers 7.12502
rthumb 0.613322 -445.324
lclavicle 9.54166e-015 2.8625e-014
lhumerus -31.5666 -29.1782 88.5384
lradius 73.5873
lwrist 64.9028
lhand -16.4399 -7.24185
lfingers 7.12502
lthumb 9.7758 22.5112
rfemur -57.0875 -9.14662 10.5704
rtibia 82.6355
rfoot -33.9132 -8.98867
rtoes -13.2396
lfemur -49.8938 11.2065 -13.5214
ltibia 73.4628
lfoot -28.5787 19.0134
ltoes -24.2936
885
root 35.5875 13.955 0.133089 -6.95003 109.05 -23.7243
lowerback 38.5294 0.256595 4.70134
upperback 9.4752 3.41723 -1.97285
thorax -7.98331 2.2511 -5.97948
lowerneck -34.7354 -4.53074 -6.3373
upperneck 15.573 -0.106097 -9.59124
head 10.6631 -1.58302 -2.58347
rclavicle -1.27222e-014 -1.145e-013
rhumerus 6.62384 51.9069 -99.0592
rradius 36.6581
rwrist -41.707
rhand -26.0586 -55.9023
rfingers 7.12502
rthumb 0.489152 -445.881
lclavicle -1.27222e-014 -1.145e-013
lhumerus -31.5433 -29.2572 88.321
lradius 73.8538
lwrist 64.9222
lhand -16.3509 -7.21894
lfingers 7.12502
lthumb 9.86159 22.5301
rfemur -56.5369 -9.90675 11.4121
rtibia 82.2409
rfoot -33.7791 -8.81634
rtoes -14.2347
lfemur -51.2595 10.8935 -13.0381
ltibia 73.4899
lfoot -27.186 18.724
ltoes -25.9198
886
root 35.6819 13.9876 0.046374 -6.01668 108.737 -22.2339
lowerback 38.22 0.550852 4.6275
upperback 9.55959 3.73502 -2.00505
thorax -7.75192 2.41176 -6.08032
lowerneck -35.1135 -4.47176 -6.84453
upperneck 16.9504 0.300164 -9.27233
head 11.2608 -1.4775 -2.36422
rclavicle 1.27222e-014 1.90833e-014
rhumerus 7.25594 51.8873 -98.4893
rradius 36.2859
rwrist -41.5325
rhand -25.7968 -55.9893
rfingers 7.12502
rthumb 0.742019 -445.968
lclavicle 1.27222e-014 1.90833e-014
lhumerus -31.282 -29.6804 88.3923
lradius 73.6922
lwrist 64.9285
lhand -16.2513 -7.5678
lfingers 7.12502
lthumb 9.95774 22.1767
rfemur -55.2156 -10.2341 11.6866
rtibia 81.9262
rfoot -33.8935 -8.09448
rtoes -13.2991
lfemur -51.1212 11.0862 -12.8096
ltibia 73.3756
lfoot -26.5532 18.4454
ltoes -26.8531
